<svg width="93" height="30" viewBox="0 0 93 30" fill="none" xmlns="http://www.w3.org/2000/svg">
<path d="M12 23C14.1217 23 16.1566 22.1571 17.6569 20.6569C19.1571 19.1566 20 17.1217 20 15C20 12.8783 19.1571 10.8434 17.6569 9.34315C16.1566 7.84285 14.1217 7 12 7C9.87827 7 7.84344 7.84285 6.34315 9.34315C4.84285 10.8434 4 12.8783 4 15C4 17.1217 4.84285 19.1566 6.34315 20.6569C7.84344 22.1571 9.87827 23 12 23V23ZM12 25C6.477 25 2 20.523 2 15C2 9.477 6.477 5 12 5C17.523 5 22 9.477 22 15C22 20.523 17.523 25 12 25ZM8 13L6 15L11 20L18 13L16 11L11 16L8 13Z" fill="white"/>
<path d="M36.4119 10.4091V13.1364H28.5284V10.4091H36.4119ZM30.3182 7.27273H33.9489V19.4773C33.9489 19.8125 34 20.0739 34.1023 20.2614C34.2045 20.4432 34.3466 20.571 34.5284 20.6449C34.7159 20.7187 34.9318 20.7557 35.1761 20.7557C35.3466 20.7557 35.517 20.7415 35.6875 20.7131C35.858 20.679 35.9886 20.6534 36.0795 20.6364L36.6506 23.3381C36.4688 23.3949 36.2131 23.4602 35.8835 23.5341C35.554 23.6136 35.1534 23.6619 34.6818 23.679C33.8068 23.7131 33.0398 23.5966 32.3807 23.3295C31.7273 23.0625 31.2188 22.6477 30.8551 22.0852C30.4915 21.5227 30.3125 20.8125 30.3182 19.9545V7.27273ZM42.5099 23.7472C41.6747 23.7472 40.9304 23.6023 40.277 23.3125C39.6236 23.017 39.1065 22.5824 38.7259 22.0085C38.3509 21.429 38.1634 20.7074 38.1634 19.8438C38.1634 19.1165 38.2969 18.5057 38.5639 18.0114C38.831 17.517 39.1946 17.1193 39.6548 16.8182C40.1151 16.517 40.6378 16.2898 41.223 16.1364C41.8139 15.983 42.4332 15.875 43.081 15.8125C43.8423 15.733 44.456 15.6591 44.9219 15.5909C45.3878 15.517 45.7259 15.4091 45.9361 15.267C46.1463 15.125 46.2514 14.9148 46.2514 14.6364V14.5852C46.2514 14.0455 46.081 13.6278 45.7401 13.3324C45.4048 13.0369 44.9276 12.8892 44.3082 12.8892C43.6548 12.8892 43.1349 13.0341 42.7486 13.3239C42.3622 13.608 42.1065 13.9659 41.9815 14.3977L38.6236 14.125C38.794 13.3295 39.1293 12.642 39.6293 12.0625C40.1293 11.4773 40.7741 11.0284 41.5639 10.7159C42.3594 10.3977 43.2798 10.2386 44.3253 10.2386C45.0526 10.2386 45.7486 10.3239 46.4134 10.4943C47.0838 10.6648 47.6776 10.929 48.1946 11.2869C48.7173 11.6449 49.1293 12.1051 49.4304 12.6676C49.7315 13.2244 49.8821 13.892 49.8821 14.6705V23.5H46.4389V21.6847H46.3366C46.1264 22.0938 45.8452 22.4545 45.4929 22.767C45.1406 23.0739 44.7173 23.3153 44.223 23.4915C43.7287 23.6619 43.1577 23.7472 42.5099 23.7472ZM43.5497 21.2415C44.0838 21.2415 44.5554 21.1364 44.9645 20.9261C45.3736 20.7102 45.6946 20.4205 45.9276 20.0568C46.1605 19.6932 46.277 19.2812 46.277 18.821V17.4318C46.1634 17.5057 46.0071 17.5739 45.8082 17.6364C45.6151 17.6932 45.3963 17.7472 45.152 17.7983C44.9077 17.8437 44.6634 17.8864 44.419 17.9261C44.1747 17.9602 43.9531 17.9915 43.7543 18.0199C43.3281 18.0824 42.956 18.1818 42.6378 18.3182C42.3196 18.4545 42.0724 18.6392 41.8963 18.8722C41.7202 19.0994 41.6321 19.3835 41.6321 19.7244C41.6321 20.2188 41.8111 20.5966 42.169 20.858C42.5327 21.1136 42.9929 21.2415 43.5497 21.2415ZM63.5909 14.142L60.267 14.3466C60.2102 14.0625 60.0881 13.8068 59.9006 13.5795C59.7131 13.3466 59.4659 13.1619 59.1591 13.0256C58.858 12.8835 58.4972 12.8125 58.0767 12.8125C57.5142 12.8125 57.0398 12.9318 56.6534 13.1705C56.267 13.4034 56.0739 13.7159 56.0739 14.108C56.0739 14.4205 56.1989 14.6847 56.4489 14.9006C56.6989 15.1165 57.1278 15.2898 57.7358 15.4205L60.1051 15.8977C61.3778 16.1591 62.3267 16.5795 62.9517 17.1591C63.5767 17.7386 63.8892 18.5 63.8892 19.4432C63.8892 20.3011 63.6364 21.054 63.1307 21.7017C62.6307 22.3494 61.9432 22.8551 61.0682 23.2188C60.1989 23.5767 59.196 23.7557 58.0597 23.7557C56.3267 23.7557 54.946 23.3949 53.9176 22.6733C52.8949 21.946 52.2955 20.9574 52.1193 19.7074L55.6903 19.5199C55.7983 20.0483 56.0597 20.4517 56.4744 20.7301C56.8892 21.0028 57.4205 21.1392 58.0682 21.1392C58.7045 21.1392 59.2159 21.017 59.6023 20.7727C59.9943 20.5227 60.1932 20.2017 60.1989 19.8097C60.1932 19.4801 60.054 19.2102 59.7812 19C59.5085 18.7841 59.0881 18.6193 58.5199 18.5057L56.2528 18.054C54.9744 17.7983 54.0227 17.3551 53.3977 16.7244C52.7784 16.0937 52.4688 15.2898 52.4688 14.3125C52.4688 13.4716 52.696 12.7472 53.1506 12.1392C53.6108 11.5312 54.2557 11.0625 55.0852 10.733C55.9205 10.4034 56.8977 10.2386 58.017 10.2386C59.6705 10.2386 60.9716 10.5881 61.9205 11.2869C62.875 11.9858 63.4318 12.9375 63.5909 14.142ZM69.4652 19.733L69.4737 15.3778H70.0021L74.1953 10.4091H78.3629L72.7294 16.9886H71.8686L69.4652 19.733ZM66.1754 23.5V6.04545H69.8061V23.5H66.1754ZM74.3572 23.5L70.505 17.7983L72.9254 15.233L78.6101 23.5H74.3572ZM91.0362 14.142L87.7124 14.3466C87.6555 14.0625 87.5334 13.8068 87.3459 13.5795C87.1584 13.3466 86.9112 13.1619 86.6044 13.0256C86.3033 12.8835 85.9425 12.8125 85.522 12.8125C84.9595 12.8125 84.4851 12.9318 84.0987 13.1705C83.7124 13.4034 83.5192 13.7159 83.5192 14.108C83.5192 14.4205 83.6442 14.6847 83.8942 14.9006C84.1442 15.1165 84.5732 15.2898 85.1811 15.4205L87.5504 15.8977C88.8232 16.1591 89.772 16.5795 90.397 17.1591C91.022 17.7386 91.3345 18.5 91.3345 19.4432C91.3345 20.3011 91.0817 21.054 90.576 21.7017C90.076 22.3494 89.3885 22.8551 88.5135 23.2188C87.6442 23.5767 86.6413 23.7557 85.505 23.7557C83.772 23.7557 82.3913 23.3949 81.3629 22.6733C80.3402 21.946 79.7408 20.9574 79.5646 19.7074L83.1357 19.5199C83.2436 20.0483 83.505 20.4517 83.9197 20.7301C84.3345 21.0028 84.8658 21.1392 85.5135 21.1392C86.1499 21.1392 86.6612 21.017 87.0476 20.7727C87.4396 20.5227 87.6385 20.2017 87.6442 19.8097C87.6385 19.4801 87.4993 19.2102 87.2266 19C86.9538 18.7841 86.5334 18.6193 85.9652 18.5057L83.6982 18.054C82.4197 17.7983 81.468 17.3551 80.843 16.7244C80.2237 16.0937 79.9141 15.2898 79.9141 14.3125C79.9141 13.4716 80.1413 12.7472 80.5959 12.1392C81.0561 11.5312 81.701 11.0625 82.5305 10.733C83.3658 10.4034 84.343 10.2386 85.4624 10.2386C87.1158 10.2386 88.4169 10.5881 89.3658 11.2869C90.3203 11.9858 90.8771 12.9375 91.0362 14.142Z" fill="white"/>
</svg>
